<svg width="20" height="20" viewBox="0 0 20 20" fill="none" xmlns="http://www.w3.org/2000/svg">
<g clip-path="url(#clip0_74_1801)">
<path d="M10 0C9.38639 0 8.88889 0.496962 8.88889 1.11111V8.88889H1.11111C0.497504 8.88889 0 9.38585 0 10C0 10.6141 0.497504 11.1111 1.11111 11.1111H8.88889V18.8889C8.88889 19.503 9.38639 20 10 20C10.6136 20 11.1111 19.503 11.1111 18.8889V11.1111H18.8889C19.5025 11.1111 20 10.6141 20 10C20 9.65712 19.8451 9.35113 19.6015 9.14714C19.4086 8.98654 19.1602 8.88889 18.8889 8.88889H11.1111V1.11111C11.1111 0.496962 10.6136 0 10 0Z" fill="#586A84"/>
</g>
<defs>
<clipPath id="clip0_74_1801">
<rect width="20" height="20" fill="white"/>
</clipPath>
</defs>
</svg>
