<svg width="17" height="17" viewBox="0 0 17 17" fill="none" xmlns="http://www.w3.org/2000/svg">
<path d="M2.47395 14C2.42406 14.0003 2.37447 13.9922 2.3272 13.9762C2.22833 13.9438 2.14278 13.8797 2.08375 13.7935C2.02472 13.7074 1.99549 13.6041 2.00057 13.4996C2.00057 13.4281 2.48815 6.50808 9.38057 5.96477V3.477C9.38049 3.38225 9.40846 3.28963 9.46091 3.21096C9.51337 3.13229 9.58792 3.07115 9.67506 3.03534C9.76219 2.99953 9.85795 2.99069 9.9501 3.00994C10.0423 3.02918 10.1266 3.07565 10.1924 3.14339L14.8647 7.94737C14.9514 8.03645 15 8.15623 15 8.28098C15 8.40572 14.9514 8.5255 14.8647 8.61459L10.1924 13.4186C10.1266 13.4863 10.0423 13.5328 9.9501 13.552C9.85795 13.5713 9.76219 13.5624 9.67506 13.5266C9.58792 13.4908 9.51337 13.4297 9.46091 13.351C9.40846 13.2723 9.38049 13.1797 9.38057 13.085V10.6448C4.77931 10.8212 2.89289 13.7426 2.87395 13.7784C2.83125 13.8463 2.77218 13.9022 2.70224 13.9409C2.63231 13.9797 2.55377 14 2.47395 14ZM10.3273 4.64463V6.41038C10.3274 6.53394 10.2798 6.6527 10.1946 6.74161C10.1094 6.83053 9.99317 6.88264 9.87052 6.88697C5.41127 7.05139 3.81598 10.042 3.24319 11.965C4.42664 10.9356 6.53555 9.67737 9.82554 9.67737H9.84685C9.9724 9.67737 10.0928 9.72758 10.1816 9.81696C10.2704 9.90634 10.3202 10.0276 10.3202 10.154V11.9197L13.8706 8.28336L10.3273 4.64463Z" fill="#586A84"/>
</svg>
