<svg width="17" height="16" viewBox="0 0 17 16" fill="none" xmlns="http://www.w3.org/2000/svg">
<path d="M8.07021 0.242097C8.20278 -0.0806993 8.6543 -0.0806988 8.78686 0.242097L10.8011 5.14667C10.857 5.28275 10.9834 5.37573 11.1284 5.38751L16.3566 5.812C16.7007 5.83993 16.8403 6.27483 16.5781 6.50227L12.5947 9.95795C12.4842 10.0538 12.4359 10.2043 12.4697 10.3476L13.6867 15.5146C13.7668 15.8546 13.4015 16.1234 13.1069 15.9412L8.63083 13.1723C8.50663 13.0955 8.35044 13.0955 8.22625 13.1723L3.75016 15.9412C3.45557 16.1234 3.09028 15.8546 3.17038 15.5145L4.38736 10.3476C4.42112 10.2043 4.37286 10.0538 4.26233 9.95795L0.278985 6.50227C0.0168195 6.27483 0.156346 5.83993 0.500444 5.812L5.72866 5.38751C5.87372 5.37573 6.00009 5.28275 6.05597 5.14667L8.07021 0.242097Z" fill="#FFC045"/>
</svg>
