<svg width="17" height="16" viewBox="0 0 17 16" fill="none" xmlns="http://www.w3.org/2000/svg">
<path d="M8.21303 0.242097C8.3456 -0.0806993 8.79712 -0.0806988 8.92969 0.242097L10.9439 5.14667C10.9998 5.28275 11.1262 5.37573 11.2712 5.38751L16.4995 5.812C16.8435 5.83993 16.9831 6.27483 16.7209 6.50227L12.7376 9.95795C12.627 10.0538 12.5788 10.2043 12.6125 10.3476L13.8295 15.5146C13.9096 15.8546 13.5443 16.1234 13.2497 15.9412L8.77365 13.1723C8.64946 13.0955 8.49326 13.0955 8.36907 13.1723L3.89299 15.9412C3.59839 16.1234 3.23311 15.8546 3.3132 15.5145L4.53018 10.3476C4.56395 10.2043 4.51568 10.0538 4.40516 9.95795L0.421807 6.50227C0.159642 6.27483 0.299169 5.83993 0.643266 5.812L5.87148 5.38751C6.01654 5.37573 6.14291 5.28275 6.1988 5.14667L8.21303 0.242097Z" fill="#CBD1D9"/>
</svg>
