<svg width="20" height="20" viewBox="0 0 20 20" fill="none" xmlns="http://www.w3.org/2000/svg">
<g clip-path="url(#clip0_15_17)">
<path fill-rule="evenodd" clip-rule="evenodd" d="M4.90992 5V5.0001H3.11436C2.59518 5.0001 2.16235 5.39741 2.11801 5.9147L1.00373 18.9147C0.953683 19.4985 1.4141 20.0001 2.00008 20.0001H17.8213C18.4073 20.0001 18.8677 19.4985 18.8177 18.9147L17.7034 5.9147C17.6591 5.39741 17.2262 5.0001 16.707 5.0001H14.9099V5C14.9099 2.23858 12.6714 0 9.90992 0C7.14849 0 4.90992 2.23858 4.90992 5ZM6.90992 5V5.0001H12.9099V5C12.9099 3.34315 11.5668 2 9.90992 2C8.25307 2 6.90992 3.34315 6.90992 5ZM9.90838 13C12.6488 13 14.8743 10.7953 14.908 8.06284C14.9093 8.04206 14.9099 8.0211 14.9099 8C14.9099 7.44771 14.4622 7 13.9099 7C13.3577 7 12.9099 7.44771 12.9099 8V8.00008H12.9084C12.9083 9.6569 11.5652 11 9.90838 11C8.2678 11 6.9348 9.68312 6.90876 8.04874C6.90954 8.03259 6.90993 8.01634 6.90993 8C6.90993 7.44771 6.46221 7 5.90993 7C5.35764 7 4.90992 7.44771 4.90992 8V8.00008H4.90902V7.91867C4.90859 7.94573 4.90837 7.97284 4.90837 8C4.90837 10.7614 7.14695 13 9.90838 13Z" fill="white"/>
</g>
<defs>
<clipPath id="clip0_15_17">
<rect width="20" height="20" fill="white"/>
</clipPath>
</defs>
</svg>
