<svg width="16" height="16" viewBox="0 0 16 16" fill="none" xmlns="http://www.w3.org/2000/svg">
<path d="M9.7143 10.2857C9.7143 10.4372 9.65409 10.5826 9.54693 10.6897C9.43977 10.7969 9.29442 10.8571 9.14287 10.8571H6.85716C6.7056 10.8571 6.56026 10.7969 6.45309 10.6897C6.34593 10.5826 6.28573 10.4372 6.28573 10.2857V9.14282H0.571442V16H15.4286V9.14282H9.7143V10.2857Z" fill="#7D8FA9"/>
<path d="M8.57142 7.42859H7.42856V9.7143H8.57142V7.42859Z" fill="#7D8FA9"/>
<path d="M12 2.28571V1.14286C12 0.839753 11.8796 0.549062 11.6653 0.334735C11.4509 0.120408 11.1602 0 10.8571 0H5.14286C4.83975 0 4.54906 0.120408 4.33474 0.334735C4.12041 0.549062 4 0.839753 4 1.14286V2.28571H0V8H6.28571V6.85714C6.28571 6.70559 6.34592 6.56025 6.45308 6.45308C6.56025 6.34592 6.70559 6.28571 6.85714 6.28571H9.14286C9.29441 6.28571 9.43976 6.34592 9.54692 6.45308C9.65408 6.56025 9.71429 6.70559 9.71429 6.85714V8H16V2.28571H12ZM5.14286 1.14286H10.8571V2.28571H5.14286V1.14286Z" fill="#7D8FA9"/>
</svg>
