<svg width="16" height="16" viewBox="0 0 16 16" fill="none" xmlns="http://www.w3.org/2000/svg">
<path d="M8.32568 10.625C8.49968 10.6038 8.65877 10.5646 8.80295 10.5076C9.03527 10.4142 9.21709 10.2854 9.3484 10.1212C9.47972 9.95456 9.54664 9.76011 9.54916 9.53789C9.54664 9.33587 9.48729 9.1692 9.37113 9.03789C9.25497 8.90405 9.09209 8.79294 8.88249 8.70456C8.71894 8.63275 8.53334 8.56725 8.32568 8.50805V10.625Z" fill="#7D8FA9"/>
<path d="M7.70446 7.06773V5.07399C7.54792 5.09515 7.40651 5.13236 7.28022 5.18562C7.07063 5.274 6.91027 5.39395 6.79916 5.54546C6.68805 5.69698 6.63123 5.86996 6.62871 6.0644C6.62871 6.22602 6.66532 6.36617 6.73855 6.48486C6.81431 6.60355 6.91658 6.70456 7.04537 6.78789C7.17416 6.8687 7.31684 6.93688 7.4734 6.99243C7.55012 7.01966 7.62714 7.04476 7.70446 7.06773Z" fill="#7D8FA9"/>
<path fill-rule="evenodd" clip-rule="evenodd" d="M7.99992 14.6667C11.6818 14.6667 14.6666 11.6819 14.6666 8.00001C14.6666 4.31811 11.6818 1.33334 7.99992 1.33334C4.31802 1.33334 1.33325 4.31811 1.33325 8.00001C1.33325 11.6819 4.31802 14.6667 7.99992 14.6667ZM7.70446 11.8363V12.697H8.32568V11.8361C8.81293 11.8086 9.23718 11.7155 9.5984 11.5568C10.0378 11.3624 10.3737 11.0934 10.606 10.75C10.8383 10.4041 10.9545 10.0038 10.9545 9.54925C10.9545 9.21339 10.8913 8.92046 10.7651 8.67046C10.6388 8.42046 10.4671 8.20708 10.2499 8.03031C10.0353 7.85355 9.79158 7.70708 9.51886 7.59092C9.24866 7.47476 8.96709 7.38259 8.67416 7.3144L8.32568 7.22728V5.06958C8.61151 5.10364 8.85267 5.1903 9.04916 5.32956C9.31179 5.5139 9.46078 5.77148 9.49613 6.10228H10.8484C10.8408 5.66541 10.7184 5.27905 10.481 4.94319C10.2436 4.60481 9.91658 4.34092 9.49992 4.15153C9.15563 3.99198 8.76421 3.89875 8.32568 3.87184V3.00001H7.70446V3.87745C7.29985 3.91027 6.92991 4.00163 6.59462 4.15153C6.16532 4.34092 5.82568 4.60733 5.57568 4.95077C5.3282 5.2942 5.20446 5.69445 5.20446 6.15153C5.20446 6.70708 5.38881 7.15279 5.75749 7.48865C6.12871 7.82198 6.63376 8.07072 7.27265 8.23486L7.70446 8.34606V10.6279C7.52598 10.6079 7.35931 10.569 7.20446 10.5114C6.96962 10.423 6.77896 10.2892 6.63249 10.1099C6.48603 9.93057 6.4027 9.70582 6.38249 9.43562H4.99992C5.02012 9.95077 5.15396 10.3876 5.40143 10.7462C5.65143 11.1048 5.99739 11.3775 6.43931 11.5644C6.80668 11.7189 7.2284 11.8095 7.70446 11.8363Z" fill="#7D8FA9"/>
</svg>
