<svg width="17" height="16" viewBox="0 0 17 16" fill="none" xmlns="http://www.w3.org/2000/svg">
<g clip-path="url(#clip0_166_1820)">
<path d="M8.66667 1.33334C4.98667 1.33334 2 4.32001 2 8.00001C2 11.68 4.98667 14.6667 8.66667 14.6667C12.3467 14.6667 15.3333 11.68 15.3333 8.00001C15.3333 4.32001 12.3467 1.33334 8.66667 1.33334ZM9.33333 12.6667H8V11.3333H9.33333V12.6667ZM10.7133 7.50001L10.1133 8.11334C9.78 8.45334 9.54 8.76001 9.42 9.24001C9.36667 9.45334 9.33333 9.69334 9.33333 10H8V9.66668C8 9.36001 8.05333 9.06668 8.14667 8.79334C8.28 8.40668 8.5 8.06001 8.78 7.78001L9.60667 6.94001C9.91333 6.64668 10.06 6.20668 9.97333 5.74001C9.88667 5.26001 9.51333 4.85334 9.04667 4.72001C8.30667 4.51334 7.62 4.93334 7.4 5.56668C7.32 5.81334 7.11333 6.00001 6.85333 6.00001H6.65333C6.26667 6.00001 6 5.62668 6.10667 5.25334C6.39333 4.27334 7.22667 3.52668 8.26 3.36668C9.27333 3.20668 10.24 3.73334 10.84 4.56668C11.6267 5.65334 11.3933 6.82001 10.7133 7.50001Z" fill="#7D8FA9"/>
</g>
<defs>
<clipPath id="clip0_166_1820">
<rect width="16" height="16" fill="white" transform="translate(0.666748)"/>
</clipPath>
</defs>
</svg>
