<svg width="16" height="16" viewBox="0 0 16 16" fill="none" xmlns="http://www.w3.org/2000/svg">
<g clip-path="url(#clip0_11_29)">
<path d="M8 -0.00012207C3.58 -0.00012207 0 3.57989 0 7.9999C0 12.4199 3.58 15.9999 8 15.9999C12.42 15.9999 16 12.4199 16 7.9999C16 3.57989 12.42 -0.00012207 8 -0.00012207ZM8 2.39988C9.324 2.39988 10.4 3.47589 10.4 4.79989C10.4 6.12789 9.324 7.19989 8 7.19989C6.676 7.19989 5.6 6.12789 5.6 4.79989C5.6 3.47589 6.676 2.39988 8 2.39988ZM8 13.7599C5.996 13.7599 4.236 12.7359 3.2 11.1839C3.22 9.5959 6.404 8.7199 8 8.7199C9.596 8.7199 12.776 9.5959 12.8 11.1839C11.764 12.7359 10.004 13.7599 8 13.7599Z" fill="#7D8FA9"/>
</g>
<defs>
<clipPath id="clip0_11_29">
<rect width="16" height="16" fill="white"/>
</clipPath>
</defs>
</svg>
