<svg width="16" height="16" viewBox="0 0 16 16" fill="none" xmlns="http://www.w3.org/2000/svg">
<g clip-path="url(#clip0_166_1839)">
<path d="M4.23082 9.20632L6.89407 11.8711L11.7826 6.98257L9.11782 4.31932L4.23082 9.20632ZM14.8793 5.54857L13.7461 4.41457C13.4582 4.57185 13.1272 4.63166 12.8025 4.58505C12.4778 4.53845 12.177 4.38793 11.945 4.15604C11.713 3.92414 11.5624 3.62335 11.5157 3.29869C11.469 2.97403 11.5286 2.64297 11.6858 2.35507L10.5526 1.22107C10.4097 1.07945 10.2167 1 10.0156 1C9.81442 1 9.62142 1.07945 9.47857 1.22107L1.22107 9.47857C1.07945 9.62142 1 9.81442 1 10.0156C1 10.2167 1.07945 10.4097 1.22107 10.5526L2.35507 11.6851C2.64305 11.5274 2.9744 11.4673 3.29941 11.5139C3.62442 11.5605 3.92557 11.7111 4.15769 11.9433C4.38982 12.1756 4.54039 12.4768 4.58684 12.8018C4.63329 13.1268 4.57311 13.4581 4.41532 13.7461L5.54932 14.8786C5.69198 15.0205 5.88505 15.1003 6.08632 15.1003C6.28759 15.1003 6.48066 15.0205 6.62332 14.8786L14.8793 6.62257C15.0213 6.47991 15.101 6.28684 15.101 6.08557C15.101 5.8843 15.0213 5.69123 14.8793 5.54857ZM6.89407 13.0898L3.01207 9.20632L9.11857 3.10057L13.0006 6.98257L6.89407 13.0898Z" fill="#7D8FA9"/>
</g>
<defs>
<clipPath id="clip0_166_1839">
<rect width="15" height="15" fill="white" transform="translate(0.5 0.5)"/>
</clipPath>
</defs>
</svg>
