<svg width="16" height="16" viewBox="0 0 16 16" fill="none" xmlns="http://www.w3.org/2000/svg">
<path d="M11.1667 4.33333C11.1667 6.17415 9.67426 7.66667 7.83333 7.66667C5.99241 7.66667 4.5 6.17415 4.5 4.33333C4.5 2.49251 5.99241 1 7.83333 1C9.67426 1 11.1667 2.49251 11.1667 4.33333Z" fill="#7D8FA9"/>
<path d="M2 14.3333C2 11.1123 4.61169 8.5 7.83333 8.5C11.055 8.5 13.6667 11.1123 13.6667 14.3333V15.1667C13.6667 15.6273 13.2935 16 12.8333 16H2.83333C2.60109 16 2.39103 15.904 2.23987 15.751C2.15361 15.6631 2.08647 15.5573 2.04547 15.4385C2.01597 15.3538 2 15.2627 2 15.1667V14.3333Z" fill="#7D8FA9"/>
</svg>
