<svg width="21" height="21" viewBox="0 0 21 21" fill="none" xmlns="http://www.w3.org/2000/svg">
<path fill-rule="evenodd" clip-rule="evenodd" d="M0.333252 1.33332C0.333252 0.78103 0.780968 0.333313 1.33325 0.333313H4.33325C4.88554 0.333313 5.33325 0.781029 5.33325 1.33331V4.33333C5.33325 4.88561 4.88554 5.33333 4.33325 5.33333H1.33325C0.780968 5.33333 0.333252 4.88561 0.333252 4.33333V1.33332ZM0.333252 8.83334C0.333252 8.28106 0.780968 7.83334 1.33325 7.83334H4.33325C4.88554 7.83334 5.33325 8.28106 5.33325 8.83334V11.8334C5.33325 12.3856 4.88554 12.8334 4.33325 12.8334H1.33325C0.780968 12.8334 0.333252 12.3856 0.333252 11.8334V8.83334ZM1.33325 15.3334C0.780968 15.3334 0.333252 15.7811 0.333252 16.3334V19.3334C0.333252 19.8857 0.780968 20.3334 1.33325 20.3334H4.33325C4.88554 20.3334 5.33325 19.8857 5.33325 19.3334V16.3334C5.33325 15.7811 4.88554 15.3334 4.33325 15.3334H1.33325ZM15.3333 1.33332C15.3333 0.78103 15.781 0.333313 16.3333 0.333313H19.3333C19.8855 0.333313 20.3333 0.781029 20.3333 1.33332V4.33333C20.3333 4.88561 19.8855 5.33333 19.3333 5.33333H16.3333C15.781 5.33333 15.3333 4.88562 15.3333 4.33333V1.33332ZM16.3333 7.83334C15.781 7.83334 15.3333 8.28106 15.3333 8.83334V11.8334C15.3333 12.3856 15.781 12.8334 16.3333 12.8334H19.3333C19.8855 12.8334 20.3333 12.3856 20.3333 11.8334V8.83334C20.3333 8.28106 19.8855 7.83334 19.3333 7.83334H16.3333ZM15.3333 16.3334C15.3333 15.7811 15.781 15.3334 16.3333 15.3334H19.3333C19.8855 15.3334 20.3333 15.7811 20.3333 16.3334V19.3334C20.3333 19.8857 19.8855 20.3334 19.3333 20.3334H16.3333C15.781 20.3334 15.3333 19.8857 15.3333 19.3334V16.3334ZM8.83325 0.333313C8.28097 0.333313 7.83325 0.78103 7.83325 1.33332V4.33333C7.83325 4.88562 8.28097 5.33333 8.83325 5.33333H11.8333C12.3855 5.33333 12.8333 4.88561 12.8333 4.33333V1.33332C12.8333 0.781029 12.3855 0.333313 11.8333 0.333313H8.83325ZM7.83325 8.83334C7.83325 8.28106 8.28097 7.83334 8.83325 7.83334H11.8333C12.3855 7.83334 12.8333 8.28106 12.8333 8.83334V11.8334C12.8333 12.3856 12.3855 12.8334 11.8333 12.8334H8.83325C8.28097 12.8334 7.83325 12.3856 7.83325 11.8334V8.83334ZM8.83325 15.3334C8.28097 15.3334 7.83325 15.7811 7.83325 16.3334V19.3334C7.83325 19.8857 8.28097 20.3334 8.83325 20.3334H11.8333C12.3855 20.3334 12.8333 19.8857 12.8333 19.3334V16.3334C12.8333 15.7811 12.3855 15.3334 11.8333 15.3334H8.83325Z" fill="#3B4758"/>
</svg>
