<svg width="20" height="20" viewBox="0 0 20 20" fill="none" xmlns="http://www.w3.org/2000/svg">
<path fill-rule="evenodd" clip-rule="evenodd" d="M1 0C0.447716 0 0 0.447717 0 1V4.00002C0 4.5523 0.447716 5.00002 1 5.00002H4C4.55228 5.00002 5 4.5523 5 4.00002V1C5 0.447716 4.55228 0 4 0H1ZM1 7.50003C0.447716 7.50003 0 7.94774 0 8.50003V11.5C0 12.0523 0.447716 12.5 1 12.5H4C4.55228 12.5 5 12.0523 5 11.5V8.50003C5 7.94774 4.55228 7.50003 4 7.50003H1ZM0 16.0001C0 15.4478 0.447716 15.0001 1 15.0001H4C4.55228 15.0001 5 15.4478 5 16.0001V19.0001C5 19.5524 4.55228 20.0001 4 20.0001H1C0.447716 20.0001 0 19.5524 0 19.0001V16.0001ZM8 0C7.44772 0 7 0.447717 7 1V4.00002C7 4.5523 7.44772 5.00002 8 5.00002H19C19.5523 5.00002 20 4.5523 20 4.00002V1C20 0.447716 19.5523 0 19 0H8ZM7 8.50003C7 7.94774 7.44772 7.50003 8 7.50003H19C19.5523 7.50003 20 7.94774 20 8.50003V11.5C20 12.0523 19.5523 12.5 19 12.5H8C7.44772 12.5 7 12.0523 7 11.5V8.50003ZM8 15.0001C7.44772 15.0001 7 15.4478 7 16.0001V19.0001C7 19.5524 7.44772 20.0001 8 20.0001H19C19.5523 20.0001 20 19.5524 20 19.0001V16.0001C20 15.4478 19.5523 15.0001 19 15.0001H8Z" fill="#3B4758"/>
</svg>
